<svg width="228" height="206" viewBox="0 0 228 206" fill="none" xmlns="http://www.w3.org/2000/svg">
<g clip-path="url(#clip0_1140_1408)">
<rect width="228" height="205" transform="translate(0 0.5)" fill="white"/>
<path d="M92.0568 185.692C142.898 185.692 184.114 144.235 184.114 93.0959C184.114 41.9566 142.898 0.5 92.0568 0.5C41.2152 0.5 0 41.9566 0 93.0959C0 144.235 41.2152 185.692 92.0568 185.692Z" fill="#F6D034"/>
<path d="M183.234 205.5C207.962 205.5 228.008 185.337 228.008 160.464C228.008 135.592 207.962 115.429 183.234 115.429C158.507 115.429 138.461 135.592 138.461 160.464C138.461 185.337 158.507 205.5 183.234 205.5Z" fill="#00A44F"/>
<path d="M69.5803 60.4083C69.5803 58.7664 70.4956 57.3427 71.8355 56.6214C70.807 55.9949 69.6463 55.6343 68.4291 55.6343C64.0697 55.6343 60.5312 60.0951 60.5312 65.5905C60.5312 71.0859 64.0697 75.5468 68.4291 75.5468C72.7885 75.5468 76.327 71.0859 76.327 65.5905C76.327 65.04 76.2798 64.499 76.2137 63.9675C75.5343 64.4231 74.7229 64.6889 73.8453 64.6889C71.4958 64.6889 69.5803 62.7716 69.5803 60.3988V60.4083Z" fill="#FF4D00"/>
<path d="M117.299 60.4083C117.299 58.7664 118.214 57.3427 119.554 56.6214C118.526 55.9949 117.365 55.6343 116.148 55.6343C111.788 55.6343 108.25 60.0951 108.25 65.5905C108.25 71.0859 111.788 75.5468 116.148 75.5468C120.507 75.5468 124.046 71.0859 124.046 65.5905C124.046 65.04 123.999 64.499 123.932 63.9675C123.253 64.4231 122.442 64.6889 121.564 64.6889C119.215 64.6889 117.299 62.7716 117.299 60.3988V60.4083Z" fill="#FF4D00"/>
<path d="M153.586 154.039L163.465 146.303" stroke="#1D1813" stroke-width="1.88187" stroke-linecap="round" stroke-linejoin="round"/>
<path d="M163.465 154.039L153.586 146.303" stroke="#1D1813" stroke-width="1.88187" stroke-linecap="round" stroke-linejoin="round"/>
<path d="M176.32 154.039L186.2 146.303" stroke="#1D1813" stroke-width="1.88187" stroke-linecap="round" stroke-linejoin="round"/>
<path d="M186.2 154.039L176.32 146.303" stroke="#1D1813" stroke-width="1.88187" stroke-linecap="round" stroke-linejoin="round"/>
<path d="M171.311 173.866C181.64 173.866 190.013 171.299 190.013 168.133C190.013 164.967 181.64 162.4 171.311 162.4C160.983 162.4 152.609 164.967 152.609 168.133C152.609 171.299 160.983 173.866 171.311 173.866Z" fill="#F6D034"/>
<path d="M132.548 86.7271C132.548 108.547 114.959 126.239 93.2661 126.239C71.5729 126.239 53.9844 108.547 53.9844 86.7271" fill="#FF4D00"/>
</g>
<defs>
<clipPath id="clip0_1140_1408">
<rect width="228" height="205" fill="white" transform="translate(0 0.5)"/>
</clipPath>
</defs>
</svg>
