<svg width="220" height="210" viewBox="0 0 220 210" fill="none" xmlns="http://www.w3.org/2000/svg">
<g clip-path="url(#clip0_1140_1423)">
<rect width="219" height="210" transform="translate(0.5)" fill="white"/>
<path d="M124.252 7.54775C133.984 -6.66092 156.246 0.57062 155.768 17.786C155.429 29.9208 167.389 38.6017 178.825 34.5311C195.049 28.7567 208.806 47.6913 198.304 61.3372C190.901 70.951 195.466 85.0054 207.11 88.4362C223.635 93.3009 223.635 116.699 207.11 121.564C195.466 124.995 190.901 139.042 198.304 148.663C208.806 162.309 195.057 181.236 178.825 175.469C167.389 171.398 155.429 180.087 155.768 192.214C156.246 209.43 133.984 216.661 124.252 202.452C117.389 192.438 102.615 192.438 95.7515 202.452C86.0199 216.661 63.7575 209.43 64.2355 192.214C64.5748 180.079 52.6147 171.398 41.1789 175.469C24.9544 181.244 11.1975 162.309 21.7002 148.663C29.103 139.049 24.5379 124.995 12.8939 121.564C-3.63131 116.699 -3.63131 93.3009 12.8939 88.4362C24.5379 85.0054 29.103 70.9587 21.7002 61.3372C11.1975 47.6913 24.9466 28.7644 41.1789 34.5311C52.6147 38.6017 64.5748 29.9131 64.2355 17.786C63.7575 0.57062 86.0199 -6.66092 95.7515 7.54775C102.615 17.5624 117.389 17.5624 124.252 7.54775Z" fill="#F7D2D5"/>
<path d="M117.82 102.066H102.312V150.189H117.82V102.066Z" fill="#FF4E00"/>
<path d="M98.7954 142.704H121.335C132.895 142.704 142.279 152.086 142.279 163.643V168.338H77.8516V163.643C77.8516 152.086 87.2362 142.704 98.7954 142.704Z" fill="#FF4E00"/>
<path d="M119.497 121.772H100.65C96.7876 121.772 93.6562 124.901 93.6562 128.761C93.6562 132.62 96.7876 135.749 100.65 135.749H119.497C123.359 135.749 126.491 132.62 126.491 128.761C126.491 124.901 123.359 121.772 119.497 121.772Z" fill="#FF4E00"/>
<path d="M65.4298 70.5961C65.4298 70.5961 45.9434 53.4193 45.0951 66.433C44.2469 79.4466 59.9239 104.95 92.5503 103.385" stroke="#FF4E00" stroke-width="6.58656" stroke-miterlimit="10"/>
<path d="M155.136 70.0951C155.136 70.0951 174.623 52.9183 175.471 65.932C176.319 78.9457 160.642 104.449 128.016 102.884" stroke="#FF4E00" stroke-width="6.58656" stroke-miterlimit="10"/>
<path d="M163.374 53.3037C163.374 89.4614 139.515 118.773 110.074 118.773C80.6321 118.773 56.7734 89.4614 56.7734 53.3037" fill="#FF4E00"/>
<path d="M110.921 72.2382L115.571 68.8306C116.597 68.075 118.031 68.9077 117.892 70.172L117.267 75.9002C117.198 76.5324 117.545 77.1414 118.131 77.3959L123.406 79.7241C124.57 80.2407 124.57 81.8905 123.406 82.4071L118.131 84.7353C117.545 84.9898 117.198 85.5988 117.267 86.231L117.892 91.9592C118.031 93.2235 116.597 94.0485 115.571 93.3006L110.921 89.893C110.404 89.5152 109.703 89.5152 109.194 89.893L104.544 93.3006C103.518 94.0562 102.084 93.2235 102.223 91.9592L102.847 86.231C102.917 85.5988 102.57 84.9898 101.984 84.7353L96.7092 82.4071C95.5448 81.8905 95.5448 80.2407 96.7092 79.7241L101.984 77.3959C102.57 77.1414 102.917 76.5324 102.847 75.9002L102.223 70.172C102.084 68.9077 103.518 68.0827 104.544 68.8306L109.194 72.2382C109.71 72.6159 110.412 72.6159 110.921 72.2382Z" fill="#F6D034"/>
</g>
<defs>
<clipPath id="clip0_1140_1423">
<rect width="219" height="210" fill="white" transform="translate(0.5)"/>
</clipPath>
</defs>
</svg>
