<svg width="236" height="206" viewBox="0 0 236 206" fill="none" xmlns="http://www.w3.org/2000/svg">
<g clip-path="url(#clip0_1140_1436)">
<rect width="235" height="205" transform="translate(0.5 0.5)" fill="white"/>
<path d="M199.354 120.321V99.6666H199.294C199.174 44.879 154.748 0.5 99.9528 0.5C45.1579 0.5 0.740743 44.879 0.620372 99.6666H0.534392V120.321H0.5V205.5H199.388V120.321H199.354Z" fill="#BBE2EA"/>
<path d="M157.017 106.067C156.948 74.5913 131.421 49.0942 99.9437 49.0942C68.4665 49.0942 42.9477 74.5913 42.8789 106.067H42.8359V155.323H57.9254V110.299H57.9598C58.0114 87.1419 76.7894 68.3805 99.9437 68.3805C123.098 68.3805 141.876 87.1419 141.928 110.299H141.953V137.887H157.043V106.067H157.008H157.017Z" fill="#F6D234"/>
<path d="M141.932 110.299C141.88 87.1419 123.102 68.3804 99.948 68.3804C76.7936 68.3804 58.0157 87.1419 57.9641 110.299H57.9297V155.323H71.4457V114.093H71.4715C71.5059 98.385 84.2395 85.6623 99.948 85.6623C115.657 85.6623 128.39 98.385 128.425 114.093H128.442V137.895H141.958V110.308H141.932V110.299Z" fill="#00A451"/>
<path d="M171.099 102.119C171.013 62.8751 139.192 31.0898 99.9507 31.0898C60.7095 31.0898 28.8884 62.8751 28.8024 102.119H28.7422V155.323H42.8343V106.067H42.8773C42.9461 74.5914 68.4735 49.0943 99.9507 49.0943C131.428 49.0943 156.947 74.5914 157.024 106.067H157.058V137.887H171.151V102.119H171.108H171.099Z" fill="#FF4E00"/>
<path d="M212.14 123.555C208.95 123.555 205.906 124.2 203.138 125.353C199.999 116.149 191.29 109.525 181.032 109.525C176.037 109.525 171.42 111.099 167.619 113.766C163.819 111.099 159.202 109.525 154.207 109.525C144.276 109.525 135.798 115.727 132.419 124.467C130.364 123.873 128.206 123.555 125.962 123.555C113.065 123.555 102.602 134.015 102.602 146.927C102.602 159.839 113.057 170.3 125.962 170.3C128.258 170.3 130.468 169.964 132.566 169.345C136.039 177.896 144.414 183.926 154.207 183.926C159.202 183.926 163.819 182.351 167.619 179.685C171.42 182.351 176.037 183.926 181.032 183.926C191.169 183.926 199.785 177.465 203.026 168.442C205.829 169.629 208.907 170.291 212.148 170.291C225.045 170.291 235.509 159.831 235.509 146.919C235.509 134.007 225.054 123.547 212.148 123.547L212.14 123.555Z" fill="#F6D134"/>
<path d="M98.0089 142.463C95.4467 142.463 93.0049 142.979 90.7866 143.908C88.2674 136.519 81.2772 131.203 73.0403 131.203C69.0337 131.203 65.3194 132.467 62.2757 134.609C59.232 132.467 55.5177 131.203 51.511 131.203C43.5407 131.203 36.7397 136.183 34.0227 143.194C32.3719 142.721 30.6351 142.463 28.8381 142.463C18.4862 142.463 10.0859 150.859 10.0859 161.224C10.0859 171.59 18.4776 179.986 28.8381 179.986C30.6781 179.986 32.4579 179.719 34.1345 179.22C36.9202 186.085 43.6525 190.928 51.511 190.928C55.5177 190.928 59.232 189.663 62.2757 187.522C65.3194 189.663 69.0337 190.928 73.0403 190.928C81.174 190.928 88.0954 185.741 90.692 178.498C92.9447 179.453 95.4123 179.986 98.0089 179.986C108.361 179.986 116.761 171.59 116.761 161.224C116.761 150.859 108.369 142.463 98.0089 142.463Z" fill="#00A551"/>
</g>
<defs>
<clipPath id="clip0_1140_1436">
<rect width="235" height="205" fill="white" transform="translate(0.5 0.5)"/>
</clipPath>
</defs>
</svg>
